/* XPM */
static char *e5bccb75ec9c4f99e5506ae228a607314zIyQxncvqCYRL4F[] = {
/* columns rows colors chars-per-pixel */
"32 32 112 2 ",
"   c None",
".  c black",
"X  c #020000",
"o  c #020300",
"O  c #020400",
"+  c #0D0100",
"@  c #0E0000",
"#  c #0E0100",
"$  c #0F0100",
"%  c #000802",
"&  c #060B01",
"*  c #0A0F01",
"=  c #090F02",
"-  c #140000",
";  c #140100",
":  c #160200",
">  c #190100",
",  c #1C0100",
"<  c #1B0500",
"1  c #0A1002",
"2  c #0E1403",
"3  c #001B04",
"4  c #101703",
"5  c #121A03",
"6  c #141B03",
"7  c #200200",
"8  c #220200",
"9  c #2A0400",
"0  c #370000",
"q  c #320400",
"w  c #3A0600",
"e  c #192206",
"r  c #1C2407",
"t  c #202A08",
"y  c #2D3A0E",
"u  c #34360D",
"i  c #410800",
"p  c #420800",
"a  c #440800",
"s  c #450800",
"d  c #530C00",
"f  c #5F0F00",
"g  c #651000",
"h  c #681200",
"j  c #6B1200",
"k  c #6D1300",
"l  c #781600",
"z  c #791600",
"x  c #7B1700",
"c  c #45571A",
"v  c #45571B",
"b  c #556922",
"n  c #596821",
"m  c #677F2A",
"M  c #801800",
"N  c #811800",
"B  c #851900",
"V  c #871A00",
"C  c #881A00",
"Z  c #901C00",
"A  c #911D00",
"S  c #901F01",
"D  c #981E00",
"F  c #9C1F00",
"G  c #882302",
"H  c #9C2000",
"J  c #9C2802",
"K  c #B02500",
"L  c #BB2700",
"P  c #C32A00",
"I  c #C42A00",
"U  c #CC2C00",
"Y  c #D22E00",
"T  c #D62F00",
"R  c #D72F00",
"E  c #D73000",
"W  c #D83000",
"Q  c #D93000",
"!  c #DA3000",
"~  c #DB3000",
"^  c #DC3000",
"/  c #DC3100",
"(  c #DD3100",
")  c #DE3100",
"_  c #DF3100",
"`  c #E03100",
"'  c #E13200",
"]  c #E23200",
"[  c #E33200",
"{  c #E43200",
"}  c #E43300",
"|  c #E53300",
" . c #E73300",
".. c #E73400",
"X. c #738D2F",
"o. c #779433",
"O. c #799634",
"+. c #829D36",
"@. c #81A037",
"#. c #8AAA3B",
"$. c #8CAD3C",
"%. c #8FB03D",
"&. c #90B13D",
"*. c #91B33E",
"=. c #93B540",
"-. c #93B640",
";. c #95B841",
":. c #96BA41",
">. c #99BC42",
",. c #99BD43",
"<. c #9ABE43",
"1. c #9CC043",
/* pixels */
"                        . .                                     ",
"                          . .             O . .                 ",
"                          . .       5 . . . r 1 .               ",
"                            .     * . c O.$.*.y .               ",
"                            . . 6 . m <.<.<.*.e .               ",
"                            . 1 . c >.:.=.<.@..                 ",
"                              4 . o.<.=.=.1.b .                 ",
"                              O . #.<.<.1.X.. 2                 ",
"                              . r $.%.+.n . <                   ",
"                . . . . . .   . & u 3 . . % . .                 ",
"            $ . q x D H V w . : ; . 0 G J H x q . $             ",
"          . . H R | | | | ! S . X G E [ } } } E H . .           ",
"        , . K ..[ ! ! ! _ _ ..V C | [ ~ ! ! _ _ ..K . ,         ",
"        . N [ _ _ _ _ _ _ ! _ ! ^ [ ! _ _ _ _ ! ! | N .         ",
"      7 . P [ ! _ _ _ ! _ _ ! _ _ ! _ _ ! _ _ ! _ [ P . 7       ",
"      . a ! _ _ _ ! _ _ _ _ _ _ _ _ _ _ _ _ _ _ _ _ _ a .       ",
"      . h _ / _ _ _ _ / _ / / _ _ _ _ _ _ / _ _ _ / _ h .       ",
"      . x } / _ / / _ _ _ _ _ _ _ ! ! _ _ / _ / _ / } l .       ",
"      . x } / _ _ _ / _ / _ _ / _ _ _ _ _ _ / _ _ _ } x .       ",
"      . k _ _ _ _ / _ _ / _ _ / _ ! _ _ / _ _ _ / / _ k .       ",
"      . d _ _ ! _ _ / _ / _ _ _ _ ! _ _ / _ _ / _ ! _ d .       ",
"      . ; E _ _ / _ / _ _ _ / _ _ _ _ _ / _ _ / ! _ E > .       ",
"        . L } / _ / _ _ _ / _ / _ _ _ ! _ _ _ _ _ } L .         ",
"        . N } / _ _ _ / _ / _ _ _ ! _ _ _ / / _ ! } V .         ",
"        . $ E _ _ _ _ _ _ _ / _ _ / _ _ _ _ _ _ } Y $ .         ",
"          . C } ! _ _ ! ! _ _ _ _ _ _ ! _ ! _ ! ..C .           ",
"          ; . I } ! _ _ _ _ ! _ / _ _ _ _ ! ! } I . ;           ",
"            . a E [ ! ! _ _ / _ _ / _ _ _ ! } E a .             ",
"              . f E .._ _ ! ..! ! } / / _ ..E g .               ",
"              9 . i L _ [ [ U g g U } } _ L w . 9               ",
"                  . . d l g . . . . h l d . .                   ",
"                    8 . . . $     $ . . . 8                     "
};
