/* XPM */
static char *_e80dc9dcadc4ce1b8ecb23290dcec03YjDXP6PfoGteycWH[] = {
/* columns rows colors chars-per-pixel */
"64 64 194 2 ",
"   c None",
".  c #000003",
"X  c #0B0501",
"o  c #030B06",
"O  c #0D0902",
"+  c #000109",
"@  c #030808",
"#  c #140C02",
"$  c #1A0F02",
"%  c #02130A",
"&  c #1D1302",
"*  c #1B1802",
"=  c #161209",
"-  c #141A0B",
";  c #1C1908",
":  c #221602",
">  c #241902",
",  c #2B1C01",
"<  c #251F08",
"1  c #301F01",
"2  c #2F2205",
"3  c #252009",
"4  c #2A240A",
"5  c #322202",
"6  c #362806",
"7  c #352C0B",
"8  c #3C2D09",
"9  c #3B2A06",
"0  c #3D310D",
"q  c #422F02",
"w  c #433105",
"e  c #4F3902",
"r  c #44340A",
"t  c #49370A",
"y  c #4D3B0B",
"u  c #513D09",
"i  c #564001",
"p  c #584107",
"a  c #554109",
"s  c #5B460D",
"d  c #5D4910",
"f  c #614805",
"g  c #634B0C",
"h  c #694D09",
"j  c #6C520D",
"k  c #6E5307",
"l  c #755807",
"z  c #76590B",
"x  c #7A5B0C",
"c  c #715409",
"v  c #634C10",
"b  c #6D5813",
"n  c #705410",
"m  c #7E600F",
"M  c #875E04",
"N  c #885F04",
"B  c #8C6304",
"V  c #8C6806",
"C  c #84630B",
"Z  c #8A650B",
"A  c #8C690D",
"S  c #936701",
"D  c #946A05",
"F  c #9C6D02",
"G  c #926D0B",
"H  c #986F0D",
"J  c #9F7000",
"K  c #96710C",
"L  c #9B740D",
"P  c #846413",
"I  c #886610",
"U  c #8B6B13",
"Y  c #936E11",
"T  c #947114",
"R  c #9D7411",
"E  c #9E7812",
"W  c #967219",
"Q  c #A37301",
"!  c #AA7600",
"~  c #A57907",
"^  c #AF7900",
"/  c #A1760C",
"(  c #A47A0D",
")  c #AA7D0C",
"_  c #B27E00",
"`  c #A17710",
"'  c #A17911",
"]  c #A97E11",
"[  c #AF8507",
"{  c #AD810C",
"}  c #B78203",
"|  c #BC8600",
" . c #B68805",
".. c #BE8E07",
"X. c #B3840D",
"o. c #B9860C",
"O. c #B6890C",
"+. c #BC8B0C",
"@. c #AC8211",
"#. c #B38511",
"$. c #BD8C14",
"%. c #C48D03",
"&. c #C98F06",
"*. c #C28D0B",
"=. c #CB9405",
"-. c #CF9C00",
";. c #C5920B",
":. c #CA940C",
">. c #CD990B",
",. c #C59102",
"<. c #D49707",
"1. c #D49B04",
"2. c #DB9D05",
"3. c #D39608",
"4. c #D49C0B",
"5. c #DB9E0A",
"6. c #D59D10",
"7. c #D89E11",
"8. c #D7A103",
"9. c #DCA304",
"0. c #D7A00A",
"q. c #DCA30A",
"w. c #DAA110",
"e. c #E2A504",
"r. c #E9A707",
"t. c #E3AA01",
"y. c #EBAD04",
"u. c #E1A50A",
"i. c #E4A90A",
"p. c #EAAC0A",
"a. c #F4AF05",
"s. c #F2AF0B",
"d. c #EEB203",
"f. c #EEB00A",
"g. c #F4B303",
"h. c #FCB501",
"j. c #F7B800",
"k. c #FEBB01",
"l. c #F2B209",
"z. c #F6B908",
"x. c #FFBC0D",
"c. c #F6B611",
"v. c #FEBD14",
"b. c #F2B51E",
"n. c #FEBD1C",
"m. c #EDB325",
"M. c #EBB42B",
"N. c #F2B623",
"B. c #F5B922",
"V. c #FCBB23",
"C. c #F0B629",
"Z. c #F5BC2C",
"A. c #FDBC2A",
"S. c #FBB623",
"D. c #E9AF30",
"F. c #E5B133",
"G. c #ECB634",
"H. c #EEB835",
"J. c #EAB53B",
"K. c #E9B73B",
"L. c #F3BC33",
"P. c #FDBE32",
"I. c #F1BC3B",
"U. c #FCBD39",
"Y. c #FFC201",
"T. c #FFC500",
"R. c #FFC201",
"E. c #FFC900",
"W. c #FFCD01",
"Q. c #FFCF06",
"!. c #FFCC02",
"~. c #FFC50C",
"^. c #FFCC0C",
"/. c #FFD203",
"(. c #FFC413",
"). c #FFCC13",
"_. c #FFC61C",
"`. c #FFC31B",
"'. c #FFCD1F",
"]. c #FFC025",
"[. c #FDC22C",
"{. c #F7C037",
"}. c #FFC236",
"|. c #FFCA32",
" X c #F4C03F",
".X c #FFC23B",
"XX c #E6B443",
"oX c #ECB942",
"OX c #F0BD44",
"+X c #F6C141",
"@X c #FFC242",
"#X c #FDC24C",
"$X c #FBC356",
"%X c #FBC35A",
/* pixels */
"                                                                                                                                ",
"                                                                                                                                ",
"                                                            +X]._.[.                                                            ",
"                                                           X/.d.8.T.'.                                                          ",
"                                                          ).t.- + U T.Z.                                                        ",
"                                                        Z.T.z . 6 . >.Q.                                                        ",
"                                                        /.:.. < # . s k.[.                                                      ",
"                                                      ].j.t . # . > . O.W. X                                                    ",
"                                                    I.W.{ . > . # O . 3 d._.                                                    ",
"                                                    _.t.. X O . . O > . L W.I.                                                  ",
"                                                  I.E.A . & . : y . # # + 9.).                                                  ",
"                                                  ^.1.. & > . R p.. O * . x T.{.                                                ",
"                                                Z.R.h . & . o p.T./ . > * . >.Q.                                                ",
"                                              oXW.... > > . X.T.R.f.6 . & . d k.Z.                                              ",
"                                              V.g.8 . & . y z.Y.k.Y.O.. > > . +./.oX                                            ",
"                                            I.E.( . : > . ;.T.j.k.Y.k.s . : . 7 d.V.                                            ",
"                                            _.t.. X & . z k.k.Y.Y.k.T.>.. : > . E E.I.                                          ",
"                                          L.R.Z . : & + q.R.k.k.k.k.k.k.C . & X + t.`.                                          ",
"                                          ).1.. : : . L R.k.k.k.k.k.k.R.e.. # > . A T.H.                                        ",
"                                        Z.k.h . & . ; f.k.k.k.k.j.k.k.k.R.L . > ; . 1.(.                                        ",
"                                        !.... : > . #.R.j.k.k.k.k.k.Y.j.k.d.3 . & . j k.H.                                      ",
"                                      B.d.0 . & . a z.k.k.k.k.k.k.k.k.k.k.R.O.. > > . ;.!.                                      ",
"                                    oXE.~ . > : . >.Y.k.h.k.k.k.k.j.k.k.k.k.z.a . & . y g.M.                                    ",
"                                    n.t.. . & . z k.k.k.k.R.T.R.k.Y.Y.T.k.k.R.>.. : > . @.T.oX                                  ",
"                                  G.R.Z . & & . q.k.k.R.k.4.X.( ( { O.q.T.T.k.k.l . : . 3 t.m.                                  ",
"                                  (.1.. & > . L R.k.R.4.K O.q.d.d.y.0.{ R q.R.R.q.. & & . K T.K.                                ",
"                                G.k.j . & . ; f.k.k.X.@.z.R.R.k.R.k.T.T.f.R ;.T.k.K . > O . 8.v.                                ",
"                                ~.+.. : > . X.R.R.O.O.T.k.k.k.k.k.k.k.j.R.T.' >.R.i.o . : . m k.G.                              ",
"                              C.d.t . & . u z.k.q.( R.k.k.k.k.k.k.k.j.k.k.R.k.T f.R.{ . > & . =.(.                              ",
"                            XXT.) . > : . :.R.k.( f.k.k.k.k.k.k.j.k.Y.k.k.j.T.0.O.R.d.r . & . g j.M.                            ",
"                            m.9.* . & . z k.k.y.{ f.z.k.h.h.k.k.k.Y.k.k.k.k.k.z.( z.k.... > > . +.~.                            ",
"                          K.k.G . > & . q.k.k.q...{ l.k.k.k.k.h.k.k.k.k.k.z.@.R.{ d.k.g.h . * . r d.C.                          ",
"                          b.1.. # > . G k.h.k.5.+.o.x.k.h.k.h.k.k.k.k.k.k.R.{ u.O.y.k.k.>.. & : . ~ !.oX                        ",
"                        F.k.z . & . . p.k.k.k.9.+.X.g.k.k.k.k.k.k.k.k.R.k.k.,.0.X.g.g.g.k.C . : . - t.B.                        ",
"                        v.,.. & > . ) k.k.k.k.s.@.+.q.k.5.u.k.k.h.k.p.*.p.T.X.0.{ k.g.g.g.9.. O : . K T.I.                      ",
"                      F.d.g . & . 8 p.k.h.h.h.k.+.x p./ . . $.k.k.u.@ . + i.+.L 4.R.g.g.g.h.L . > # + 9.`.                      ",
"                      x. .. : : . o.k.h.k.R.k.k.f.x 0.. : . 4 l.R.L . q . { O.C k.k.g.k.g.g.i.2 . > . C T.L.                    ",
"                    m.y.t . & . g s.g.k.u.;.k.k.z.X.u.. 5 & > l.T.~ . w . { 4.;.R.g.k.u.g.d.k.X.. : & . 1.(.                    ",
"                    k.( . : : . :.h.h.g.R X.{ R.h.( x.c . . L 4.C w.. . + p.i.X.R.R.+.m ..k.g.d.p . > . j Y.L.                  ",
"                  m.9.3 . : . x z.g.g.g.' R.+.T i.) l.z.( o.l.f . *.p.X.q.T.>.>.k.{ X.q.{ k.d.h.;.. : > . :.).                  ",
"                XXk.K . > # . 4.h.g.k.u.X.h.k.l.$.h Y k.k.R.q.. . c k.k.R.p.U #.L 3.R.y.E g.g.g.k.z . > . y k.[.                ",
"                b.8.. X > . A h.g.g.k./ ] / L $.g.l.H v u.R.4.+ . % l.R.$.+ n 4.z.q./ :.E +.k.g.h.4.. $ < . O./.                ",
"              K.k.I . : . o i.h.g.h.k.r.*.l.l.5.R $.;.j 3 6.h.5.q.p.k.@.@ d i.u.L { q.:.~ u.g.g.g.k.G . > . 4 g.].              ",
"              `.-.. $ > . ) k.h.h.h.h.k.k.k.h.k.k.q.Z { 9 b ' 4.u.4.Y ' Z A I o.f.k.k.k.h.h.g.h.g.k.i.o . , . / W.+X            ",
"            H.k.z . > . r s.h.h.k.h.h.h.h.k.h.h.h.k.2.+.E T U Y R @.$.W U ) q.k.k.g.g.g.g.h.g.g.j.g.R.{ . , X + y.`.            ",
"            (.=.+ & : . *.k.h.h.h.h.k.h.k.h.h.h.h.k.i.o.6.W #.' ] #.T P 7.) h.h.g.g.g.h.g.g.g.h.g.k.k.g.r . > . A W.{.          ",
"          L.k.d . > . h h.h.h.k.h.h.h.h.h.a.h.k.h.5./ I z.$.E #.$.X.U 4.y.v $.r.k.k.g.g.h.h.g.g.g.k.h.k.*.. > $ . 9.`.          ",
"          ^.... > : . 6.k.h.h.h.k.h.h.k.4.I X.+.R +.l.) ( R.5.) ` #.q.k.A 3.5./ ) +./ U y.h.h.g.h.k.h.k.h.h . < . z T.U.        ",
"        C.k.t . > . M x.h.k.h.h.h.h.h.h.e.] r.2.h.r.] $.) o.k.R.k.k.k.) ` ( ;.l.r.4.5.` g.h.h.h.h.k.k.h.k.4.. : : . =.).        ",
"        Q.X.. > # . u.k.z.h.h.h.h.h.h.h.k.) a.h.' ] r.h.h.*.R o.3.*.R &.h.h.;.H *.k.%.<.k.h.g.h.k.k.k.k.h.x.C . , . s R.}.      ",
"      V.d.< . , . L k.h.h.h.h.h.h.h.h.h.h.*.*.R q.h.h.h.h.h.a.2.;.<.a.h.h.h.h.h.) o.) u.h.h.k.h.g.k.k.k.k.k.i.. # > . +.^.      ",
"    oXT.~ . > . + p.k.h.h.h.h.h.h.h.h.h.h.a.( 5.h.a.h.h.h.h.h.k.k.h.h.a.a.a.a.h.h.#.o.h.g.h.h.k.h.k.j.k.k.k.R.L . , . 0 k.A.    ",
"    S.e.. . : . o.R.k.k.h.k.k.k.k.k.k.h.h.k.k.k.h.h.h.h.h.h.h.h.h.h.h.h.h.h.h.h.h.k.k.h.k.k.k.k.k.R.R.R.k.R.R.l.6 . , . { Q.    ",
"  K.R.V . : . = :.2.2.5.2.2.2.2.2.2.2.2.2.2.2.2.2.2.2.2.<.2.<.<.3.3.3.&.=.%.*.%.*.o.o.} X.) ) ~ ~ L K D V C x z 9 . O . % g.].  ",
"  N.2.. $ . . O . . . . . . . . . . . . . . . . . . . . . . . . . . . . . . . . . . . . . . . . . . . . . . . . . # # , . L ).  ",
"  x.B . 5 : : : , , 1 , , , , , , , , , , , , , , , , , , , 1 , 1 , 1 1 1 1 5 5 5 5 5 5 5 5 5 5 2 , , , > & # X . . . . . C ^.  ",
"  x./ . . + . . . . . . . . . . . . . . . . . . . . . . . . . . . . . . . . . . . . . . + + . . + + . + . . o * 6 9 e i l g.A.  ",
"  D.h.} J Q J F F D D D V B S B B B M M M M M B B B B B B S S S D F F Q Q ! ! ^ _ } | %.%.=.1.2.9.t.y.d.z.l.v.n.`.].].|.|.U.    ",
"    J.n.`.(.(.(.(.~.~.~.~.~.(.~.(.(.(.(.x.x.v.x.x.v.v.v.v.v.n.n.n.n.S.].n.S.S.A.S.S.A.P.P.P.P..X.X}..X@XOX.X#X#X#X$X%X$X        ",
"                                                                                                                                ",
"                                                                                                                                ",
"                                                                                                                                ",
"                                                                                                                                ",
"                                                                                                                                "
};
