/* XPM */
static char *_08744e5890048ecd65856aa8aa1a2ca1oTs5dOlUBWUaQLM[] = {
/* columns rows colors chars-per-pixel */
"64 64 52 1 ",
"  c None",
". c #259362",
"X c #259363",
"o c #269362",
"O c #279362",
"+ c #269363",
"@ c #279363",
"# c #259462",
"$ c #259463",
"% c #259563",
"& c #269462",
"* c #279462",
"= c #269463",
"- c #279463",
"; c #269563",
": c #259364",
"> c #269364",
", c #259464",
"< c #259564",
"1 c #269464",
"2 c #279464",
"3 c #269564",
"4 c #279564",
"5 c #269664",
"6 c #279664",
"7 c #279665",
"8 c #279765",
"9 c #279865",
"0 c #279866",
"q c #279966",
"w c #279967",
"e c #279A67",
"r c #289A67",
"t c #289B67",
"y c #289B68",
"u c #289C68",
"i c #289C69",
"p c #289D69",
"a c #289E69",
"s c #289E6A",
"d c #299E6A",
"f c #299F6A",
"g c #299F6B",
"h c #29A06B",
"j c #29A16C",
"k c #2AA26C",
"l c #2AA26D",
"z c #2AA36D",
"x c #2AA46D",
"c c #2AA56E",
"v c #2BA870",
"b c #2CAC73",
/* pixels */
"==X================X===========X=====6========XX*===============",
"=q66**r=r**=r=r*8**r8*8*8*888**r8*8*8*66666666888*88q==9r***r=r*",
"66X===============XX===X===========XX6=========X=XX*====X=======",
":6==============8r*rr*r688888888r*r666q666q6q66q86==============",
"=6============================================X6================",
"Xq===========h6                                  =d=============",
"=8===========p6                                  =d=============",
"=8===========p=          =X                      =d=============",
"=9===========p=        =dddd=                    *d=============",
"=============p=       *h==X=h=                   =d=============",
"=9===========p=       dX====Xd                   *d=============",
"=9===========p=       dX=====d=                  *d=============",
"=q===========p=       d======d=                  @dX============",
"=============p=       rX====Xp                   8dX============",
"=============p=       =c====c6                   8d*============",
"=9&==========p=        =qhh==                    *d=============",
"=9===========p=                                  8dX============",
"=9===========p=           ==pdqudqdddrdyr=       *d@============",
"=*===========p=          dp=X===X===XXXX=6cX     8dX============",
"=9===========p=         q=============6X=XXq     *d*============",
"=9&==========p=        =q===========ddydrXXd6    *d=============",
"=9&==========p=       Xd=============XX=88*Xq    *d=============",
"=9&==========p=      Xd=============     =8=d=   @d@============",
"=*===========p=      d====q========h8     d==y   8dX============",
"=============dX     8===8==r=======q=     =8=yX  *d=============",
"=r==================8===d  d========p      d==d  :d=============",
"=9============8yyyd===8d   ========6d=     =r=h6 =d=============",
"=9&=============6==X==dX   *d=========      dd6  =d=============",
"=9&==============X==8k=     rX=======d=      6   8dX============",
"=*=============*==:6XX      @r=======q=          *dX============",
"=============aX              d=======Xd          *d@============",
"=r===========aX              =6======Xd6         *d=============",
"=9===========p=              =dX=====XdX         *d66XXXX*6XXXX*",
"==&==========p=              Xy=======aX         =dX*X*6X6*X*6X6",
"=9===========p=              d====6==XqX         8dX6X6*XXXX6*X*",
"=9===========p=             =r===66:=Xr=         *d=*XXX*6*6XXX6",
"=q===========p=             q6X=q= ==&==         *dXX*6X6*6*XXX*",
"=============p#            Xy6X=h6 =====         *d6X6*XXXXX*6X6",
"=============p=            r===6=  =*==r         Xd*XXXXX*6X6*X*",
"=9&==========p=           Xd===d=  =r==a         6yX*6*6X6*XXXX6",
"=9===========p=           6=====   =r==d         =bq=6==X*6XXXX*",
"=9===========p=          6dX==d=   6d==d          6=q6==X6*X*6X6",
"=============p=          6=====    =d==rX            =qXXXXX6*X*",
"=9===========p#         =d===d=     d===rdpdddddddh=  ==*6*6XXX6",
"=9&==========p=         =====8      dX==XX:*6XX@===6d =d6*6*XXX*",
"=9&==========p=        =d===d=      d==X@X@X*X@XX=6=d= dXXXX*6X6",
"=9&==========p=        ===XXq       Xkpdddddddddddhhkr =yX6X6*X*",
"=*&==========p=       =d==*dX        6::**8@8@@8X:X6X*  k**XXXX6",
"=============a&       =====r                            ========",
"=r===========a=      Xh===a=                     =vrppyq========",
"=9===========p=      =6=X6r                      Xd=============",
"=9&==========p=      d==XrX                      =d=============",
"=9&==========p=     X8=X=d                       =d=============",
"=*===========p=     dX=6k@                       *d=============",
"=============d=    =drqqX                        6d=============",
"=r==========Xd=                                  =pX============",
"=r===========q=                                  Xk:============",
"==============d=    6bdhdq=                       :g============",
"==============Xd*    *d===rr                       6d6==========",
"=r==============dX    =h==XXd                       6dXX========",
"=9=========:=====d6    =h====r                       6d6========",
"====:6=====6=====XdX    =h====q                       :g========",
"=r9qq66qq6q6qqq6rq=kX    =h====d                       6h=======",
"=X=X=:6=:6==X======XX6    6======                       =r======"
};
