/* XPM */
static char *_6aa750ae35b4110a530754f7ced3536Owgjq1RVc0RghSW8[] = {
/* columns rows colors chars-per-pixel */
"64 64 43 1 ",
"  c #88AB1D",
". c #89AD1D",
"X c #89AC1E",
"o c #8AAF1E",
"O c #8AAE1F",
"+ c #8AAF1F",
"@ c #8BAF1F",
"# c #8FB31F",
"$ c #8FB41F",
"% c #90B41F",
"& c #90B61F",
"* c #95B91F",
"= c #95BB1F",
"- c #96BB1F",
"; c #96BC1F",
": c #90B320",
"> c #90B520",
", c #90B620",
"< c #93B821",
"1 c #96BB20",
"2 c #97BB20",
"3 c #94B822",
"4 c #96BC20",
"5 c #98BE21",
"6 c #99BE22",
"7 c #99BF22",
"8 c #99C022",
"9 c #9DC22A",
"0 c #9DC22B",
"q c #9DC32B",
"w c #9EC42B",
"e c #9EC42C",
"r c #9FC52C",
"t c #A1C42B",
"y c #A1C52C",
"u c #A3C52C",
"i c #A0C62D",
"p c #A3C62C",
"a c #A4C62D",
"s c #A4C72E",
"d c #A5C72E",
"f c #A3C82D",
"g c #A4C82E",
/* pixels */
"%>-44-..144-.X11,,**,<wi54>>==. 114=>>==>>4444==,,=444gg54--4->%",
"#%-1-- @144- .11,,14,,00=4>%4=.:114=>>=5>>4=5=*<*,1444gi55555->>",
"..#>442;1441,,-*44**14454-41$%11-44=>>==44-- O:*44-444rr55ia4-1-",
"X.$>444=4444,,444=41144=44-1>>1-1>=4>%5;=5--.::$44*444qw44ii5-1-",
" X=4=4ia5;=-14=444>14=<1>>4-11--@ ;;5--5ii5->--1$,4444441>4451,,",
" :==48ia555;145454>%4--1%>=55444@.-55555rg5;11--:,**44-1:>4--1:,",
"1--=><rigi5;=5ii4444$$XX%>=4r04441=5iii05451>>1- :<*,,4-41%<4=1-",
"<-**>>0raa55=5ai4-4>-$X.%>4500845455aai05---%>--..--,$-1<4>>4444",
">>1->%55iw4>ii<<41>#1-  -5-455ai52iarr8441>>>>;-..==: %>==44=444",
">>14>%5500>>ii>:44%-1*, -=-1=5ii55aarr4444>>>%2-:.==..%%44=45554",
"-44-5-%>%114=552$$15##11%%>>;5iw54ii84414144;5==::-*1<=4%<=4ii5=",
"444145>>%%1-52-2>:1>#,-4>#::-5w0540044*-4414==8;,,4141-4>>48aa55",
"4-15aa==-1-1%11*1-..#,--1-. =444>>11,,11>>1114ii1444>>4-1145wiig",
"=555ii4=14-4>>414-: $,444-.:=444>>11,,111%1144ai4454>%14-444wiag",
">$ia1>14>>4=4=*44-4=-4-4411>$$1-4-%-111-11#,48rw55ii51%>444484ap",
">$pp,,1-<>=8484=11-444484441<#11-5>%11--1-#,44005=wa54>$1-44440w",
"4545-1--44=5ii84>>1115ia511-44,,4=4= :--: %>1545%>1>1-1- :$,4444",
"1-1---*4*445aa44<<1158ai514-4=:>444=. --  %>1441%>>>11--O $$1444",
"41>$O.$,4444=;iwii55pgip5144>#..==4=<<#$ .-1-1>>1-11-,--<1*4:,44",
"4->% #$,4-4-=;wpga55ra0054-4>% :=4*141,>.O-411>>1-11>>4-4444>,44",
"4=,$1111-1,,>>55rr55ww=>>>4-2-==%$44>14411111141-51:-4ap5=5=44=4",
"44>,141-11$$>:14er2400>>%>4-1;=8><14>>144411555145>%45ia58=44455",
"4=444444>,11. 1411111>>>-144>>4=44--44er4418ii55ia-=><iigi5==5ig",
"=4444441>>11.:444411>%::-445>>==1=4444qr4444aa55ia==>>0waa5=55pa",
">>45rg44111-44-441>>>4. 1**4wp==,,-5ip>>4444rrai555->>45iw55ip<%",
"%>-5rr855544454441<>1*.:1-*8pa85>,58aa4>4=48rrga5--->>440w44ai<>",
". -148rria5445ai4--4-*..$<=488pa52agri11=4<,45ii>>>%>>-444>,5511",
"X.-114rraa55=5pi4-1--<: $$44==ii55iarr21*4$,14e51>>%::-444>1--11",
"11-><-14wi55ia5544O@>>1*==#<-4e054rr51>>4-44-11>1---: 21=414-1,,",
"11>>--11w055pa54-4..:114-4,$440e54we51>>1--*11>>111-..1-454-1-%#",
"1->>-1,,=4>>-=>>:%41-1#,4-41,:>114454151%<14>%>>14,#;;=5ii51>%>%",
"41>%11#-=4>>-->>>>1411,,1441,,>>11--1111>%11%>>>44:,====aa51>%>%",
"1-5=: -1$$14--1--10e5-11-44-1--1>>11>11*11%#1-=5aw===5%>>11141$%",
"4--=. --,,-111-111005524545-1--4>>44>%4*-1%-1144ap54;;1>,:1441>>",
"44>>>4--,,11# -11111ii=5ia51>>>>41-=41$,>%14$,1455iw55ai41144-4-",
"44>,4411-:44 .-14-%%ai84pp54%>>>1--=--#,%>1=,,--44005=wr511144-4",
"gi5--1>#>1-->>-14-,,4848=41,1--1%>>>,%>%41-=,,*4>>481444@.-2,:14",
"ga4-52<-14-4>>11-4:,4==4==,#1444>%>>#>>>4444,$41-><<--1-. -;,,-4",
"ir54>>ti,,4*11>>=414*=,,*1 :--ai5-%%-4=50w4=11##1* O*4,$XX==>>=4",
"re24>%ir1,8455>>44=-<-$#-1..==aa55>>5555w08*11-,1-: ==,$ :=4>>44",
"51>%114514erii5-%>;%% >>%%-<$<ergi52ggwq=8==,->1-414-->%1<===5==",
"11>$11--11e0ai55>1==  :>$$11%>riaa55rgpq==44:,1-554555>>118===44",
"1-4-:.-->115aw=5ap-=. %%1-.:-445wp55rg881444,,41igai5-;;14ia5544",
"441-  -1>>150w55ip4=:.#>11 .-4440055pg4*1=44#,11igga5-5=58ia5===",
"44,#  :<11-444w0<<>%1<----,,-444>>111511>%: 11-,-5iiaa=5ia51@ >>",
"-4$#.O$$-4-444we<>>%11-144,#1--4>>1-11-1>%XX-1$#-5wwgi55ag41 .:>",
",$1*--$,$>11454444=4>>114-11%>>%51--..<14-.X##11%>=5ww<*ii>>. --",
"#,--14$,>>1144--44=4<>144455>>>%----.:11-- .#,1->%4500$%aa1:X.--",
" O1<>%4---:.:,11,<-4e05=;5ia12-1#,,#<-%>1-%>---->>%>>1:,445-%:%>",
". ==>>4-1-  :,*<,,44w08=55at5441,,,#-<-%11%>4551>>>%>>:,-5=5%%>%",
"%>==---;,#..=4==44-445ia1>%%444-1--1%---%>0pii51;=-=%%44-44=1-%%",
">%=5555;,# :=4==44*444ii<%%%4=-4=*1-##--:10iaa852555>>=-41-=14%>",
"=5-5ii5=1--1$,44<$4444844411$,>>44>%X@:%1145iwii55pw5--4>>14>->4",
"4-15aa854114<$4=>>--4---1-11#,#,4=>$. >:1445wiga55pa5-44->14>%--",
"4-41=8gi44--14==>>-4,,11,$..%%-4==>$ O==144415irai55-1>%114441$>",
"555-==ia55552==4%%1-$#-1$$OO#>4444>$. -5=111-50rgi55-1%>11444-<>",
"ai4>44rw550a%<$$11%% .%%1------44=4=$:$,-2>>441:4411>%14-1eq1444",
"ga>>44w051pa<%,,21>% :>>-2-5555144*-,:#,;=>>-->%11-1<>1441rr4414",
"ir>>4448>>551-=4001-11>>-1;5ii54>11-,:-1==>%-1>%.O---4-44445ii>>",
"rr>%44*->>1-14=8ee5544>>1155ai41>>11,14484>%45>% .-4-41-4445ii1>",
"1441-,>-,,-1>>1555reii54-5iaii5-=8==18pp==45ai4=O ,,4441>>=555--",
"1--1#,44,#1*%>--14eega5545aaer-1;==4<4wp8=85ga54: :,4451>>4=---1",
">>:%44=*111#. -14555iigi44ip5522>>>>44=8ap55rg5444<=005-44-->>11",
"%%%>=4411-,:X.-11-550iga51rw544;>%%>=448ag5=gp444444rr54445->>-1"
};
