/* XPM */
static char *e64a0679d3b249878b5af046101ce14eZRZW5ijgMBpKKGdV[] = {
/* columns rows colors chars-per-pixel */
"26 64 10 1 ",
"  c None",
". c black",
"X c gray6",
"o c #99795C",
"O c #CEA17A",
"+ c #CEA27A",
"@ c #F9C292",
"# c #FFCA98",
"$ c #FFCB99",
"% c #F4F4F4",
/* pixels */
"       .........          ",
"    ...+#######+..        ",
"   .+############+..      ",
"  .+###############+.     ",
" .+#################+.    ",
" .###################+.   ",
".+####################.   ",
".#####################+X  ",
".######################.  ",
".######################.  ",
".######################.  ",
".###############+...@@+X  ",
".###############.+%%##+X  ",
".###############+%..##+X  ",
".#####o..+######+%..##+.  ",
"X+####.#o.#######++.###.  ",
" .####.##X#########+###.  ",
" .+###.##o#############+. ",
"  .+##.o###############+. ",
"   .+#+.+###############+.",
"    .+##o+##############o.",
"    .o+##o#############o. ",
"     .+##+o#########++o.  ",
"     .O###+.+##########.  ",
"     .o####+.++#######o.  ",
"    .+######+..+++O++o.   ",
"    .+#######+o.......    ",
"    .##+######+o..        ",
"    .##o#########+.       ",
"    .##o+#####o###+.      ",
"    .##.+####+.####.      ",
"    .##.+####+.####+.     ",
"    .##.+####+.#####.     ",
"    .##.+###$+.#####.     ",
"    .##.+###$+.#####.     ",
"    .##.+$$$$+.#####.     ",
"    .$#.+$$$$+.####+.     ",
"    .$#.+$$$$+.#+ooo.     ",
"    .$#.+$$$$+.###+..     ",
"    .$$.+$$$$+.####.      ",
"    .$$.+$$$$+.####.      ",
"    .$$.+$$$+o.####.      ",
"    .##.+$$$$+.####.      ",
"    .o+.+$$$$$+.###.      ",
"    .+#.+$$$$$$.###.      ",
"    .##.++$+$+$.###.      ",
"    .##.+.$.$.#.##+.      ",
"    .o+.o.$.+.o.##.       ",
"     .o+..o.o..##+.       ",
"      .o+#...###+.        ",
"       .######++.         ",
"       .########.         ",
"       .########.         ",
"       .########.         ",
"       .########.         ",
"       .########.         ",
"       .#######+.         ",
"       .+###++oo.         ",
"      .+#######++.        ",
"      .##########+.       ",
"      .###########+.      ",
"      .############.      ",
"      .+##########+.      ",
"       ............       "
};
