/* XPM */
static char *d25d472e9c6141aec85a1eac435fecd2EIhUzL8skESaNMDm[] = {
/* columns rows colors chars-per-pixel */
"32 32 112 2 ",
"   c None",
".  c black",
"X  c #020000",
"o  c #020400",
"O  c #0F0100",
"+  c #000802",
"@  c #060B01",
"#  c #0A0F01",
"$  c #140100",
"%  c #160200",
"&  c #190100",
"*  c #1C0100",
"=  c #1B0500",
"-  c #0A1002",
";  c #0E1403",
":  c #001B04",
">  c #101703",
",  c #121A03",
"<  c #141B03",
"1  c #200200",
"2  c #220200",
"3  c #2A0400",
"4  c #370000",
"5  c #320400",
"6  c #3A0600",
"7  c #192206",
"8  c #1C2407",
"9  c #2D3A0E",
"0  c #34360D",
"q  c #410800",
"w  c #440800",
"e  c #530C00",
"r  c #5F0F00",
"t  c #651000",
"y  c #681200",
"u  c #6D1300",
"i  c #781600",
"p  c #7B1700",
"a  c #45571A",
"s  c #556922",
"d  c #596821",
"f  c #677F2A",
"g  c #811800",
"h  c #871A00",
"j  c #881A00",
"k  c #901F01",
"l  c #981E00",
"z  c #882302",
"x  c #9C2000",
"c  c #9C2802",
"v  c #B02500",
"b  c #BB2700",
"n  c #C32A00",
"m  c #C42A00",
"M  c #CC2C00",
"N  c #D22E00",
"B  c #D72F00",
"V  c #D73000",
"C  c #DA3000",
"Z  c #DB3000",
"A  c #DC3000",
"S  c #DC3100",
"D  c #DF3100",
"F  c #DB3501",
"G  c #DE3F0C",
"H  c #E33200",
"J  c #E43300",
"K  c #E53300",
"L  c #E03501",
"P  c #E73400",
"I  c #E03803",
"U  c #E1410E",
"Y  c #E6410C",
"T  c #E14311",
"R  c #E64A1A",
"E  c #E35024",
"W  c #E4582E",
"Q  c #E15E38",
"!  c #EA653D",
"~  c #E46843",
"^  c #E87150",
"/  c #738D2F",
"(  c #779433",
")  c #799634",
"_  c #829D36",
"`  c #81A037",
"'  c #8AAA3B",
"]  c #8CAD3C",
"[  c #8FB03D",
"{  c #91B33E",
"}  c #93B540",
"|  c #96BA41",
" . c #99BC42",
".. c #9ABE43",
"X. c #EB8366",
"o. c #EC896D",
"O. c #ED8F75",
"+. c #EE967E",
"@. c #9CC043",
"#. c #EFA08A",
"$. c #F0A18C",
"%. c #F0AE9C",
"&. c #F1B2A1",
"*. c #F1B3A3",
"=. c #F3B9AA",
"-. c #F4BEAF",
";. c #F6CABF",
":. c #F7D1C7",
">. c #FBEAE5",
",. c #FCEEEA",
"<. c #FCEFEC",
"1. c #FDF3F1",
/* pixels */
"                        . .                                     ",
"                          . .             o . .                 ",
"                          . .       , . . . 8 - .               ",
"                            .     # . a ) ] { 9 .               ",
"                            . . < . f ......{ 7 .               ",
"                            . - . a ..| { ..` .                 ",
"                              > . ( ..} } @.s .                 ",
"                              o . ' ....@./ . ;                 ",
"                              . 8 ] [ _ d . =                   ",
"                . . . . . .   . @ 0 : . . + . .                 ",
"            O . 5 p l x h 6 . % % . 4 z c x p 5 . $             ",
"          . . x B K K K K C k . . z V H K Y ! V x . .           ",
"        * . v P H C C C D D P h j K H C C Q $.D P v . *         ",
"        . g H D D D D D D C D C D H C D I +.-.F C K g .         ",
"      1 . n H C D D D C D D C D D C W O.*.>.,.%.X.R n . 1       ",
"      . w C D D D C D D D D D D D D ^ =.:.<.1.:.#.E D w .       ",
"      . y D D D D D D D D C D D D D D D T &.:.U D D D y .       ",
"      . p J C D C C D H D D D D D C C D H ~ X.C D C J i .       ",
"      . p J C D D D C F C D D C D D D D D F G D D D J p .       ",
"      . u D D D D D D D D D D D D C D D D D D D D C D u .       ",
"      . e D D C D D D D C F H D D C D D C D D C D C D e .       ",
"      . % C D D C D C D D D C D D D D D D D D C C D V & .       ",
"        . b J D D D D D D D D D D D D C D D D D D P b .         ",
"        . p J C D H F C D C D D D C D D D C D D C J h .         ",
"        . O V D D D D D D D C D D D D D D D D D J N O .         ",
"          . h P C D D C C D D D D D D C D C D C P h .           ",
"          % . m P C D D D D C D C D D D D C C H n . %           ",
"            . w V H C C D D C D D C D D D C K V w .             ",
"              . r V P D D C P C C P C D D P V t .               ",
"              3 . w b D H J M t t M J J H b 6 . 3               ",
"                  . . e i t . . . . y i e . .                   ",
"                    1 . . . O     O . . . 1                     "
};
