/* XPM */
static char *_270c428f25b45abe38b033786b51353xkd4YVRPZYRqpLRv[] = {
/* columns rows colors chars-per-pixel */
"33 64 7 1 ",
"  c None",
". c black",
"X c #99795C",
"o c #CE9D68",
"O c #CEA27A",
"+ c #FFCA98",
"@ c #FFCB99",
/* pixels */
"           ...........           ",
"         ..O+++++++++O..         ",
"       ..O+++++++++++++O..       ",
"      .O+++++++++++++++++O.      ",
"      .+++++++++++++++++++.      ",
"     .O+++++++++++++++++++O.     ",
"     .+++++++++++++++++++++.     ",
"     .+++++++++++++++++++++.     ",
"    .O+++++++++++++++++++++O.    ",
"    .+++++++++++++++++++++++.    ",
"    .+++++++++++++++++++++++.    ",
"    .+++++++++++++++++++++++.    ",
"    .+++++++++++++++++++++++.    ",
"    .O+++++++++++++++++++++O.    ",
"    ..+++++++++++++++++++++..    ",
"   .OO+++++++++++++++++++++Oo.   ",
"   .o+++++++++++++++++++++++o.   ",
"   .+++++++++++++++++++++++++.   ",
"   .+++++++++++++++++++++++++.   ",
"   .O+O+++++++++++++++++++O+O.   ",
"    .O.+++++++++++++++++++.O.    ",
"     ..O+++++++++++++++++O..     ",
"       .O+++++++++++++++O.       ",
"     ....O+++++++++++++O....     ",
"   ..O@@O.++OOOOOOOOO@+.O@@O..   ",
"  .O@@@@+.+++++++++++++.@@@@@O.  ",
" .O+@@@@+O+++++++++++++O@@@@@@O. ",
" .@@@@@@@@@@@++++@@@@@@@@@@@@@@. ",
".O@@@@@@@@@@@@@@@@@@@@@@@@@@@@@O.",
".@@@@@@@@@@@@@@@@@@@@@@@@@@@@@@@.",
".@@@@@@@@@@@@@@@@@@@@@@@@@@@@@@@.",
".@@@@O@@@@@@@@@@@@@@@@@@@@@O@@@@.",
".@@@@X@@@@@@@@@@@@@@@@@@@@@X@@@@.",
".@@@O.O@@@@@@@@@@@@@@@@@@@O.O@@@.",
".@@@O.O@@@@@@@@@@@@@@@@@@@O.O@@@.",
".@@@O.O@@@@@@@@@@@@@@@@@@@O.O@@@.",
".@@@O.O@@@@@@@@@@@@@@@@@@@O.O@@@.",
".@@@O.O@+++++@@@@@@@@@@@@@O.O@@@.",
".@@@O.O@@@@@@@@@@@@@@@@@@@O.O@@@.",
".@@@O.O@@@@@@@@@@@@@@@@@@@O.O@@@.",
".@@@O.O@@@@@@@@@@@@@@@@@@@O.O@@@.",
".@@@O.O@@@@@@@@@@@@@@@@@@@O.O@@@.",
".@@@O.O@@@@@@@@@@@@@@@@@@@O.O@@@.",
".@@@O.O@@@@@@@@@@@@@@@@@@@O.O@@@.",
".@OOX.O@@@@@@@@@@@@@@@@@@@O.XOO@.",
".OO.O.O@@@@@@@@@O@@@@@@@@@O.O.OO.",
" .O.O.O@@@@@@@@@O@@@@@@@@@O.O.O. ",
"  .O..O@@@@@@@@@X@@@@@@@@@O..O.  ",
"   ...O@@@@@@@@OXO@@@@@@@@O...   ",
"     .O@@OOOOOXXXXXOOOOO@@O.     ",
"     .O@@@@@@@OX.XO@@@@@@@O.     ",
"     .O@@@@@@@@O.O@@@@@@@@O.     ",
"     .O@@@@@@@@O.O@@@@@@@@O.     ",
"     .O@@@@@@@@O.O@@@@@@@@O.     ",
"     .O@@@@@@@@O.O@@@@@@@@O.     ",
"     .O@@@@@@@@O.O@@@@@@@@O.     ",
"     .XO@@@@@@OX.XO@@@@@@OX.     ",
"     .O@@@@@@@@O.O@@@@@@@@O.     ",
"     .O@@@@@@@@O.O@@@@@@@@O.     ",
"     .O@@@@@@@@O.O@@@@@@@@O.     ",
"     .O@@@@@@@@O.O@@@@@@@@O.     ",
"     .O@@@@@@@@O.O@@@@@@@@O.     ",
"      .O@@@@@@O. .O@@@@@@O.      ",
"       ........   ........       "
};
