/* XPM */
static char *ae3fc7871d8b42daf4959b7d16522bdaLfnRIiN179Yi5E2y[] = {
/* columns rows colors chars-per-pixel */
"33 64 8 1 ",
"  c None",
". c black",
"X c #99795C",
"o c #CE9D68",
"O c #CEA27A",
"+ c #FFCA98",
"@ c #FFCB99",
"# c #F4F4F4",
/* pixels */
"           ...........           ",
"         ..O+++++++++O..         ",
"       ..O+++++++++++++O..       ",
"      .O+++++++++++++++++O.      ",
"      .+++++++++++++++++++.      ",
"     .O+++++++++++++++++++O.     ",
"     .+++++++++++++++++++++.     ",
"     .+++++++++++++++++++++.     ",
"    .O+++++++++++++++++++++O.    ",
"    .+++++++++++++++++++++++.    ",
"    .+++++++++++++++++++++++.    ",
"    .+++++++++++++++++++++++.    ",
"    .+++++++++++++++++++++++.    ",
"    .O+++++++++++++++++++++O.    ",
"    ..+++++++++++++++++++++..    ",
"   .OO+++O....O+++O....O+++Oo.   ",
"   .o++++.O##O.+++.O##O.++++o.   ",
"   .++++++#..#+++++#..#++++++.   ",
"   .++++++#..#+++++#..#++++++.   ",
"   .O+O+++O..O+++++O..O+++O+O.   ",
"    .O.++++OO+++++++OO++++.O.    ",
"     ..O++++++O+++O++++++O..     ",
"       .++++++O...O++++++.       ",
"     ...+++++++OOO+++++++...     ",
"   ..OX.O+++++++++++++++O.XO..   ",
"  .O@@@X.+++O.......O+++.X@@@O.  ",
" .O+@@@@.O++++OOOOO++++O.O@@@@O. ",
" .@@@@@@O..O+++++++++O..O@@@@@@. ",
".O@@@@@@@OX..O+++++O..XO@@@@@@@O.",
".@@@@@@@@@@OX.......XO@@@@@@@@@@.",
".@@@@@@@@@@@@OOOOOOO@@@@@@@@@@@@.",
".@@@@O@@@@@@@@@@@@@@@@@@@@@O@@@@.",
".@@@@X@@@@@@@@@@@@@@@@@@@@@X@@@@.",
".@@@O.O@@@@@@@@@@@@@@@@@@@O.O@@@.",
".@@@O.O@@@@@@@@@@@@@@@@@@@O.O@@@.",
".@@@O.O@@@@@@@@@O@@@@@@@@@O.O@@@.",
".@@@O.O@@@@@@@@@O@@@@@@@@@O.O@@@.",
".@@@O.O@++++++@OXO@@@@@@@@O.O@@@.",
".@@@O.O@@OOOOOOOOOOOOOOO@@O.O@@@.",
".@@@O.O@@@@@@@@@@@@@@@@@@@O.O@@@.",
".@@@O.O@@@@@@@@@@@@@@@@@@@O.O@@@.",
".@@@O.O@@@@@@@@@@@@@@@@@@@O.O@@@.",
".@@@O.O@@@@@@@@@@@@@@@@@@@O.O@@@.",
".@@@O.O@@@@@@@@@@@@@@@@@@@O.O@@@.",
".@OOX.O@@@@@@@@@@@@@@@@@@@O.XOO@.",
".OO.O.O@@@@@@@@@@@@@@@@@@@O.O.OO.",
" .O.O.O@@@@@@@@@@@@@@@@@@@O.O.O. ",
"  .O..O@@@@@@@@@@@@@@@@@@@O..O.  ",
"   ...O@@@@@OXO@@@OXO@@@@@O...   ",
"     .O@@@@@@OXXXXXO@@@@@@O.     ",
"     .O@@@@@@@OX.XO@@@@@@@O.     ",
"     .O@@@@@@@@O.O@@@@@@@@O.     ",
"     .O@@@@@@@@O.O@@@@@@@@O.     ",
"     .O@@@@@@@@O.O@@@@@@@@O.     ",
"     .O@@@@@@@@O.O@@@@@@@@O.     ",
"     .O@@@@@@@@O.O@@@@@@@@O.     ",
"     .XO@@@@@@OX.XO@@@@@@OX.     ",
"     .O@@@@@@@@O.O@@@@@@@@O.     ",
"     .O@@@@@@@@O.O@@@@@@@@O.     ",
"     .O@@@@@@@@O.O@@@@@@@@O.     ",
"     .O@@@@@@@@O.O@@@@@@@@O.     ",
"     .O@@@@@@@@O.O@@@@@@@@O.     ",
"      .O@@@@@@O. .O@@@@@@O.      ",
"       ........   ........       "
};
