/* XPM */
static char *ba52cc4706624106c297b5eaf8d31cfaUu63dvfdA3GY7l0B[] = {
/* columns rows colors chars-per-pixel */
"26 64 10 1 ",
"  c None",
". c black",
"X c gray6",
"o c #99795C",
"O c #CEA17A",
"+ c #CEA27A",
"@ c #F9C292",
"# c #FFCA98",
"$ c #FFCB99",
"% c #F4F4F4",
/* pixels */
"          .........       ",
"        ..+#######+...    ",
"      ..+############+.   ",
"     .+###############+.  ",
"    .+#################+. ",
"   .+###################. ",
"   .####################+.",
"  X+#####################.",
"  .######################.",
"  .######################.",
"  .######################.",
"  X+@@...+###############.",
"  X+##%%+.###############.",
"  X+##..%+###############.",
"  .+##..%+######+..o#####.",
"  .###.++#######.o#.####+X",
"  .###+#########X##.####. ",
" .+#############o##.###+. ",
" .+###############o.##+.  ",
".+###############+.+#+.   ",
".o##############+o##+.    ",
" .o#############o##+o.    ",
"  .o++#########o+##+.     ",
"  .##########+.+###+.     ",
"  .o#######O+.+####o.     ",
"   .o+++OO+..+######+.    ",
"    .......o+#######+.    ",
"        ..o+######+##.    ",
"       .+#########o##.    ",
"      .+###o#####+o##.    ",
"      .####.+####+.##.    ",
"     .+####.+####+.##.    ",
"     .#####.+####+.##.    ",
"     .#####.+$###+.##.    ",
"     .#####.+$###+.##.    ",
"     .#####.+$$$$+.##.    ",
"     .+####.+$$$$+.#$.    ",
"     .ooo+#.+$$$$+.#$.    ",
"     ..+###.+$$$$+.#$.    ",
"      .####.+$$$$+.$#.    ",
"      .####.+$$$$+.$$.    ",
"      .####.o+$$$+.$$.    ",
"      .####.+$$$$+.##.    ",
"      .###.+$$$$$+.+o.    ",
"      .###.$$$$$$+.#+.    ",
"      .###.$+$+$++.##.    ",
"      .+##.$.$.$.+.##.    ",
"       .##.o.+.$.o.+o.    ",
"       .+##..o.o..+o.     ",
"        .+###...#+o.      ",
"         .++######.       ",
"         .########.       ",
"         .########.       ",
"         .########.       ",
"         .########.       ",
"         .########.       ",
"         .+#######.       ",
"         .oo++###+.       ",
"        .++#######+.      ",
"       .+##########.      ",
"      .+###########.      ",
"      .############.      ",
"      .+##########+.      ",
"       ............       "
};
